<svg id="visual" viewBox="0 0 900 600" width="900" height="600" xmlns="http://www.w3.org/2000/svg" xmlns:xlink="http://www.w3.org/1999/xlink" version="1.1"><rect x="0" y="0" width="900" height="600" fill="#e0fbfc"></rect><path d="M0 409L21.5 395C43 381 86 353 128.8 343.2C171.7 333.3 214.3 341.7 257.2 344.2C300 346.7 343 343.3 385.8 349.3C428.7 355.3 471.3 370.7 514.2 379.8C557 389 600 392 642.8 387.3C685.7 382.7 728.3 370.3 771.2 370.5C814 370.7 857 383.3 878.5 389.7L900 396L900 601L878.5 601C857 601 814 601 771.2 601C728.3 601 685.7 601 642.8 601C600 601 557 601 514.2 601C471.3 601 428.7 601 385.8 601C343 601 300 601 257.2 601C214.3 601 171.7 601 128.8 601C86 601 43 601 21.5 601L0 601Z" fill="#98c1d9"></path><path d="M0 381L21.5 378C43 375 86 369 128.8 379.7C171.7 390.3 214.3 417.7 257.2 431C300 444.3 343 443.7 385.8 441.3C428.7 439 471.3 435 514.2 434.8C557 434.7 600 438.3 642.8 437.2C685.7 436 728.3 430 771.2 418.8C814 407.7 857 391.3 878.5 383.2L900 375L900 601L878.5 601C857 601 814 601 771.2 601C728.3 601 685.7 601 642.8 601C600 601 557 601 514.2 601C471.3 601 428.7 601 385.8 601C343 601 300 601 257.2 601C214.3 601 171.7 601 128.8 601C86 601 43 601 21.5 601L0 601Z" fill="#7fa6c2"></path><path d="M0 483L21.5 473C43 463 86 443 128.8 444.5C171.7 446 214.3 469 257.2 472.2C300 475.3 343 458.7 385.8 456.3C428.7 454 471.3 466 514.2 463.7C557 461.3 600 444.7 642.8 433.3C685.7 422 728.3 416 771.2 421.3C814 426.7 857 443.3 878.5 451.7L900 460L900 601L878.5 601C857 601 814 601 771.2 601C728.3 601 685.7 601 642.8 601C600 601 557 601 514.2 601C471.3 601 428.7 601 385.8 601C343 601 300 601 257.2 601C214.3 601 171.7 601 128.8 601C86 601 43 601 21.5 601L0 601Z" fill="#678cac"></path><path d="M0 503L21.5 496.7C43 490.3 86 477.7 128.8 481C171.7 484.3 214.3 503.7 257.2 503.7C300 503.7 343 484.3 385.8 475.7C428.7 467 471.3 469 514.2 473.3C557 477.7 600 484.3 642.8 484.5C685.7 484.7 728.3 478.3 771.2 479.7C814 481 857 490 878.5 494.5L900 499L900 601L878.5 601C857 601 814 601 771.2 601C728.3 601 685.7 601 642.8 601C600 601 557 601 514.2 601C471.3 601 428.7 601 385.8 601C343 601 300 601 257.2 601C214.3 601 171.7 601 128.8 601C86 601 43 601 21.5 601L0 601Z" fill="#517396"></path><path d="M0 522L21.5 525.3C43 528.7 86 535.3 128.8 541.2C171.7 547 214.3 552 257.2 548.3C300 544.7 343 532.3 385.8 530.2C428.7 528 471.3 536 514.2 542C557 548 600 552 642.8 554.7C685.7 557.3 728.3 558.7 771.2 552C814 545.3 857 530.7 878.5 523.3L900 516L900 601L878.5 601C857 601 814 601 771.2 601C728.3 601 685.7 601 642.8 601C600 601 557 601 514.2 601C471.3 601 428.7 601 385.8 601C343 601 300 601 257.2 601C214.3 601 171.7 601 128.8 601C86 601 43 601 21.5 601L0 601Z" fill="#3d5a80"></path></svg>